<?xml version="1.0" encoding="UTF-8" standalone="no"?>
<!-- Created with Inkscape (http://www.inkscape.org/) -->

<svg
   width="32"
   height="32"
   viewBox="0 0 8.4666666 8.4666667"
   version="1.1"
   id="svg1"
   sodipodi:docname="icon.svg"
   inkscape:export-filename="icon.png"
   inkscape:export-xdpi="1536"
   inkscape:export-ydpi="1536"
   xmlns:inkscape="http://www.inkscape.org/namespaces/inkscape"
   xmlns:sodipodi="http://sodipodi.sourceforge.net/DTD/sodipodi-0.dtd"
   xmlns="http://www.w3.org/2000/svg"
   xmlns:svg="http://www.w3.org/2000/svg">
  <sodipodi:namedview
     id="namedview1"
     pagecolor="#ffffff"
     bordercolor="#000000"
     borderopacity="0.25"
     inkscape:showpageshadow="2"
     inkscape:pageopacity="0.0"
     inkscape:pagecheckerboard="0"
     inkscape:deskcolor="#d1d1d1"
     inkscape:document-units="px"
     showgrid="false"
     showguides="false"
     inkscape:zoom="17.033258"
     inkscape:cx="11.683026"
     inkscape:cy="22.221233"
     inkscape:window-width="1920"
     inkscape:window-height="1040"
     inkscape:window-maximized="1"
     inkscape:current-layer="layer1" />
  <defs
     id="defs1" />
  <g
     inkscape:label="Layer 1"
     inkscape:groupmode="layer"
     id="layer1">
    <path
       style="font-weight:bold;font-size:5.47084px;line-height:1.25;font-family:Calibri;-inkscape-font-specification:'Calibri Bold';text-align:center;text-anchor:middle;fill:#6272a4;stroke:#222430;stroke-width:0.812486;stroke-linecap:round;stroke-linejoin:round;paint-order:markers stroke fill"
       d="m 4.6754348,5.8655032 q 0,0.026713 -0.016028,0.048083 -0.013357,0.021371 -0.053426,0.034727 -0.037398,0.013356 -0.1015097,0.02137 -0.064112,0.00801 -0.1629499,0.00801 -0.096167,0 -0.1602785,-0.00801 Q 4.1171317,5.9616732 4.079733,5.9483132 4.042335,5.9349562 4.026307,5.9135862 4.010279,5.8922162 4.010279,5.8655032 V 3.0526153 H 4.004939 L 3.0031956,5.8628319 q -0.010685,0.034727 -0.034727,0.058769 -0.024042,0.02137 -0.066783,0.034727 -0.04007,0.013356 -0.104181,0.016028 -0.064111,0.00534 -0.1549359,0.00534 -0.090825,0 -0.1549359,-0.00801 -0.064111,-0.00534 -0.1068524,-0.018699 -0.04007,-0.016028 -0.064111,-0.037398 -0.024042,-0.02137 -0.032056,-0.050755 L 1.3175999,3.0526153 h -0.00534 v 2.8128879 q 0,0.026713 -0.016028,0.048083 -0.013356,0.021371 -0.053426,0.034727 -0.04007,0.013356 -0.1041811,0.02137 -0.06144,0.00801 -0.16027846,0.00801 -0.0961671,0 -0.16027849,-0.00801 -0.064114,-0.00801 -0.10418363,-0.021369 Q 0.6764859,5.9349572 0.66045804,5.9135867 0.6471015,5.8922163 0.6471015,5.8655032 V 2.7854844 q 0,-0.1362367 0.0721253,-0.2083621 0.0721253,-0.072125 0.19233422,-0.072125 H 1.3710261 q 0.1228802,0 0.2110334,0.021371 0.088153,0.018699 0.1522646,0.066783 0.064111,0.045412 0.1068523,0.1228802 0.042741,0.074797 0.074797,0.1869916 L 2.6639398,4.962602 h 0.010685 L 3.4493042,2.9083646 q 0.034727,-0.112195 0.074797,-0.1896629 0.042741,-0.077468 0.096167,-0.1255515 0.056097,-0.048084 0.1308941,-0.066783 0.074797,-0.021371 0.1736351,-0.021371 H 4.397619 q 0.072125,0 0.1228802,0.018699 0.053426,0.018699 0.085482,0.056097 0.034727,0.034727 0.050755,0.088153 0.018699,0.050755 0.018699,0.1175376 z M 7.8195651,5.4380938 q 0,0.066783 -0.00534,0.1148663 -0.00267,0.045412 -0.010685,0.080139 -0.00801,0.032056 -0.02137,0.056098 -0.013357,0.024042 -0.042741,0.056097 -0.029384,0.029384 -0.1148662,0.077468 -0.082811,0.048083 -0.2056908,0.093496 -0.1202089,0.042741 -0.2778161,0.072125 -0.1549359,0.029384 -0.3365849,0.029384 -0.355284,0 -0.641114,-0.1095237 Q 5.8775237,5.7987205 5.6771756,5.5823445 5.4768275,5.3632972 5.3699751,5.0373975 5.2631228,4.7114979 5.2631228,4.2787459 5.2631228,3.83798 5.3806603,3.4960525 5.4981979,3.154125 5.7092313,2.9217211 5.9202647,2.6893173 6.2141086,2.5691084 6.5106239,2.4488995 6.8659079,2.4488995 q 0.1442507,0 0.2778161,0.024042 0.1335654,0.024042 0.2457604,0.064111 0.1148663,0.037398 0.2056908,0.088153 0.090825,0.050755 0.1255515,0.088153 0.037398,0.034727 0.050755,0.058769 0.013357,0.024042 0.02137,0.06144 0.00801,0.037398 0.010685,0.088153 0.00534,0.050755 0.00534,0.1255515 0,0.080139 -0.00534,0.1362368 -0.00534,0.056097 -0.018699,0.090824 -0.013357,0.034727 -0.032056,0.050755 -0.018699,0.016028 -0.042741,0.016028 -0.04007,0 -0.1015097,-0.045412 -0.061439,-0.048083 -0.1602778,-0.1041805 -0.096167,-0.058769 -0.2324039,-0.104181 -0.1335654,-0.048084 -0.320557,-0.048084 -0.2056908,0 -0.3686406,0.085482 Q 6.3663732,3.2075517 6.2515069,3.3651585 6.139312,3.5200944 6.0805432,3.741813 q -0.058769,0.2217186 -0.058769,0.4995347 0,0.3045292 0.06144,0.5289191 0.064111,0.2217186 0.1789777,0.3659692 0.1175376,0.1442507 0.2804874,0.216376 0.1656211,0.069454 0.3713119,0.069454 0.1869916,0 0.3232283,-0.042741 0.1362367,-0.045412 0.2324039,-0.098838 0.098838,-0.053426 0.1602785,-0.096167 0.064111,-0.042741 0.098838,-0.042741 0.026713,0 0.042741,0.010685 0.016028,0.010685 0.026713,0.042741 0.010685,0.032056 0.016028,0.090825 0.00534,0.056097 0.00534,0.1522646 z"
       id="text1"
       aria-label="MC" />
  </g>
</svg>
